<svg width="120" height="120" viewBox="0 0 120 120" fill="none" xmlns="http://www.w3.org/2000/svg">
<path opacity="0.6" d="M79.9406 75.1526C80.2216 75.1526 80.491 75.0392 80.6897 74.8374C80.8884 74.6355 81 74.3618 81 74.0763C81 73.7908 80.8884 73.5171 80.6897 73.3152C80.491 73.1134 80.2216 73 79.9406 73H27.0594C26.7784 73 26.509 73.1134 26.3103 73.3152C26.1116 73.5171 26 73.7908 26 74.0763C26 74.3618 26.1116 74.6355 26.3103 74.8374C26.509 75.0392 26.7784 75.1526 27.0594 75.1526H79.9406ZM27.6861 80.0056H79.3139C79.5948 80.0056 79.8643 79.8922 80.063 79.6904C80.2616 79.4885 80.3733 79.2147 80.3733 78.9293C80.3733 78.6438 80.2616 78.3701 80.063 78.1682C79.8643 77.9664 79.5948 77.853 79.3139 77.853H27.6861C27.4052 77.853 27.1357 77.9664 26.937 78.1682C26.7384 78.3701 26.6267 78.6438 26.6267 78.9293C26.6267 79.2147 26.7384 79.4885 26.937 79.6904C27.1357 79.8922 27.4052 80.0056 27.6861 80.0056ZM79.7465 83.7836C79.7465 83.4984 79.6351 83.2248 79.4367 83.023C79.2383 82.8212 78.9691 82.7076 78.6884 82.7073H62.2307C62.0885 82.7023 61.9469 82.7264 61.8141 82.7782C61.6814 82.83 61.5603 82.9085 61.458 83.0088C61.3557 83.1092 61.2744 83.2295 61.2188 83.3625C61.1632 83.4955 61.1346 83.6385 61.1346 83.7829C61.1346 83.9274 61.1632 84.0704 61.2188 84.2034C61.2744 84.3364 61.3557 84.4567 61.458 84.5571C61.5603 84.6574 61.6814 84.7359 61.8141 84.7877C61.9469 84.8395 62.0885 84.8636 62.2307 84.8586H78.6884C78.969 84.8586 79.2382 84.7453 79.4366 84.5437C79.635 84.3421 79.7465 84.0687 79.7465 83.7836ZM28.3116 84.8586H44.7668C44.9089 84.8636 45.0506 84.8395 45.1833 84.7877C45.3161 84.7359 45.4372 84.6574 45.5395 84.5571C45.6418 84.4567 45.7231 84.3364 45.7787 84.2034C45.8342 84.0704 45.8628 83.9274 45.8628 83.7829C45.8628 83.6385 45.8342 83.4955 45.7787 83.3625C45.7231 83.2295 45.6418 83.1092 45.5395 83.0088C45.4372 82.9085 45.3161 82.83 45.1833 82.7782C45.0506 82.7264 44.9089 82.7023 44.7668 82.7073H28.3116C28.1695 82.7023 28.0278 82.7264 27.8951 82.7782C27.7623 82.83 27.6412 82.9085 27.5389 83.0088C27.4366 83.1092 27.3553 83.2295 27.2997 83.3625C27.2442 83.4955 27.2156 83.6385 27.2156 83.7829C27.2156 83.9274 27.2442 84.0704 27.2997 84.2034C27.3553 84.3364 27.4366 84.4567 27.5389 84.5571C27.6412 84.6574 27.7623 84.7359 27.8951 84.7877C28.0278 84.8395 28.1695 84.8636 28.3116 84.8586ZM69.1109 87.5603C68.8299 87.5603 68.5605 87.6737 68.3618 87.8755C68.1631 88.0774 68.0515 88.3511 68.0515 88.6366C68.0515 88.922 68.1631 89.1958 68.3618 89.3976C68.5605 89.5995 68.8299 89.7129 69.1109 89.7129H78.0629C78.3439 89.7129 78.6133 89.5995 78.812 89.3976C79.0107 89.1958 79.1223 88.922 79.1223 88.6366C79.1223 88.3511 79.0107 88.0774 78.812 87.8755C78.6133 87.6737 78.3439 87.5603 78.0629 87.5603H69.1109ZM28.9383 89.7129H38.1746C38.4555 89.7129 38.725 89.5995 38.9237 89.3976C39.1223 89.1958 39.234 88.922 39.234 88.6366C39.234 88.3511 39.1223 88.0774 38.9237 87.8755C38.725 87.6737 38.4555 87.5603 38.1746 87.5603H28.9383C28.6574 87.5603 28.3879 87.6737 28.1892 87.8755C27.9906 88.0774 27.879 88.3511 27.879 88.6366C27.879 88.922 27.9906 89.1958 28.1892 89.3976C28.3879 89.5995 28.6574 89.7129 28.9383 89.7129ZM78.474 93.4896C78.4736 93.2044 78.3619 92.9309 78.1633 92.7294C77.9646 92.5278 77.6954 92.4146 77.4146 92.4146H72.629C72.3546 92.4242 72.0945 92.5418 71.9037 92.7425C71.7129 92.9431 71.6063 93.2112 71.6063 93.4902C71.6063 93.7692 71.7129 94.0373 71.9037 94.238C72.0945 94.4387 72.3546 94.5562 72.629 94.5659H77.4146C77.6956 94.5659 77.965 94.4525 78.1637 94.2506C78.3624 94.0488 78.474 93.775 78.474 93.4896ZM34.371 92.4146H29.5638C29.4217 92.4096 29.28 92.4337 29.1473 92.4855C29.0145 92.5373 28.8934 92.6157 28.7911 92.7161C28.6889 92.8165 28.6075 92.9368 28.552 93.0698C28.4964 93.2028 28.4678 93.3458 28.4678 93.4902C28.4678 93.6347 28.4964 93.7777 28.552 93.9107C28.6075 94.0437 28.6889 94.164 28.7911 94.2643C28.8934 94.3647 29.0145 94.4431 29.1473 94.495C29.28 94.5468 29.4217 94.5709 29.5638 94.5659H34.371C34.5131 94.5709 34.6547 94.5468 34.7875 94.495C34.9202 94.4431 35.0414 94.3647 35.1436 94.2643C35.2459 94.164 35.3273 94.0437 35.3828 93.9107C35.4384 93.7777 35.467 93.6347 35.467 93.4902C35.467 93.3458 35.4384 93.2028 35.3828 93.0698C35.3273 92.9368 35.2459 92.8165 35.1436 92.7161C35.0414 92.6157 34.9202 92.5373 34.7875 92.4855C34.6547 92.4337 34.5131 92.4096 34.371 92.4146ZM74.5359 97.2676C74.2549 97.2676 73.9855 97.381 73.7868 97.5828C73.5881 97.7847 73.4765 98.0584 73.4765 98.3439C73.4765 98.6293 73.5881 98.9031 73.7868 99.1049C73.9855 99.3068 74.2549 99.4202 74.5359 99.4202H76.8094C77.0904 99.4202 77.3599 99.3068 77.5585 99.1049C77.7572 98.9031 77.8688 98.6293 77.8688 98.3439C77.8688 98.0584 77.7572 97.7847 77.5585 97.5828C77.3599 97.381 77.0904 97.2676 76.8094 97.2676H74.5359ZM30.2324 97.2676C29.9515 97.2676 29.682 97.381 29.4833 97.5828C29.2847 97.7847 29.1731 98.0584 29.1731 98.3439C29.1731 98.6293 29.2847 98.9031 29.4833 99.1049C29.682 99.3068 29.9515 99.4202 30.2324 99.4202H32.4666C32.7476 99.4202 33.0171 99.3068 33.2157 99.1049C33.4144 98.9031 33.526 98.6293 33.526 98.3439C33.526 98.0584 33.4144 97.7847 33.2157 97.5828C33.0171 97.381 32.7476 97.2676 32.4666 97.2676H30.2324ZM53.5057 88.0901C50.3993 88.0888 47.3624 89.0235 44.779 90.776C42.1955 92.5285 40.1817 95.02 38.9922 97.9355C37.8027 100.851 37.491 104.059 38.0964 107.155C38.7018 110.25 40.1973 113.094 42.3935 115.326C44.5898 117.557 47.3882 119.077 50.4349 119.693C53.4815 120.309 56.6395 119.993 59.5094 118.785C62.3792 117.578 64.8321 115.532 66.5577 112.908C68.2832 110.284 69.204 107.198 69.2035 104.042C69.1985 99.8139 67.5431 95.7599 64.6004 92.7694C61.6577 89.779 57.6678 88.0962 53.5057 88.0901ZM53.5057 115.694C51.2378 115.693 49.0209 115.01 47.1354 113.729C45.2499 112.449 43.7804 110.63 42.9127 108.501C42.0451 106.372 41.8182 104.03 42.2609 101.77C42.7036 99.5099 43.7959 97.4343 45.3997 95.8052C47.0036 94.1761 49.0468 93.0668 51.2712 92.6176C53.4956 92.1683 55.8011 92.3993 57.8962 93.2812C59.9914 94.1632 61.7821 95.6566 63.0418 97.5725C64.3016 99.4885 64.9739 101.741 64.9736 104.045C64.9696 107.133 63.7599 110.094 61.61 112.277C59.4601 114.461 56.5455 115.688 53.5057 115.691V115.694Z" fill="#5341DF"/>
<path opacity="0.6" d="M93.8514 53.5902H88.6557C88.58 53.4187 88.4822 53.258 88.3648 53.1122L67.0645 26.7978C66.8685 26.555 66.6221 26.358 66.3427 26.2203C66.0632 26.0827 65.7572 26.0077 65.446 26.0006C65.1347 25.9934 64.8257 26.0543 64.5402 26.1791C64.2548 26.3038 63.9998 26.4893 63.7929 26.7228L53.2238 38.623L40.5363 31.9552C40.1076 31.731 39.6162 31.658 39.1412 31.7479C38.6662 31.8379 38.2351 32.0857 37.9172 32.4513L19.7277 53.5902H13.55L10.2565 28.3727C10.1881 27.8537 9.93433 27.3774 9.54227 27.0324C9.1502 26.6873 8.6466 26.4969 8.12517 26.4967H2.09674C1.53598 26.5105 1.0028 26.7438 0.611044 27.1468C0.219288 27.5498 0 28.0906 0 28.6537C0 29.2167 0.219288 29.7575 0.611044 30.1605C1.0028 30.5635 1.53598 30.7968 2.09674 30.8106H6.23968L9.5306 56.0204C9.5312 56.0229 9.5312 56.0256 9.5306 56.0281L15.9413 105.122C15.9495 105.189 15.9611 105.255 15.976 105.32C16.0458 105.63 16.1839 105.92 16.3802 106.17L16.393 106.188C16.4213 106.224 16.4522 106.258 16.4844 106.293C16.496 106.306 16.5063 106.32 16.5192 106.333C16.532 106.346 16.5706 106.383 16.5977 106.408C16.6247 106.432 16.6363 106.446 16.6569 106.464C16.6775 106.483 16.6993 106.498 16.7199 106.515C16.7405 106.532 16.7766 106.563 16.8062 106.585L16.8538 106.616C16.8898 106.641 16.9271 106.667 16.9645 106.689L17.0018 106.71C17.0443 106.735 17.088 106.759 17.1305 106.781L17.1717 106.799C17.2154 106.82 17.2605 106.839 17.3004 106.857L17.3789 106.883C17.4123 106.895 17.4471 106.908 17.4818 106.917C17.6706 106.971 17.866 106.998 18.0623 106.998H30.6751C30.9617 107.005 31.2468 106.955 31.5137 106.849C31.7805 106.744 32.0237 106.586 32.2288 106.385C32.434 106.184 32.5971 105.944 32.7084 105.679C32.8197 105.414 32.8771 105.129 32.8771 104.841C32.8771 104.553 32.8197 104.269 32.7084 104.003C32.5971 103.738 32.434 103.498 32.2288 103.297C32.0237 103.096 31.7805 102.938 31.5137 102.833C31.2468 102.728 30.9617 102.677 30.6751 102.684H19.9581L19.3931 98.3536L15.6967 70.047H89.8191L85.5565 102.686H74.8369C74.5503 102.678 74.2652 102.729 73.9983 102.834C73.7315 102.94 73.4884 103.097 73.2832 103.298C73.078 103.499 72.9149 103.739 72.8036 104.005C72.6923 104.27 72.6349 104.555 72.6349 104.842C72.6349 105.13 72.6923 105.415 72.8036 105.68C72.9149 105.945 73.078 106.186 73.2832 106.387C73.4884 106.588 73.7315 106.745 73.9983 106.851C74.2652 106.956 74.5503 107.006 74.8369 106.999H87.4497C87.9697 106.998 88.4715 106.806 88.8618 106.461C89.252 106.116 89.5044 105.641 89.572 105.123L95.9814 56.0294C96.0216 55.7249 95.9965 55.4153 95.9077 55.1213C95.8189 54.8274 95.6686 54.5559 95.4668 54.325C95.2649 54.0942 95.0163 53.9093 94.7375 53.7828C94.4586 53.6563 94.1561 53.591 93.8501 53.5915L93.8514 53.5902ZM65.3219 31.485L83.2115 53.5902H45.6909L65.3219 31.485ZM40.055 36.5714L50.274 41.9446L40.4218 53.0385C40.2759 53.2033 40.1557 53.3893 40.0653 53.5902H25.4061L40.055 36.5714ZM15.4149 67.8869L14.1124 57.9027H91.4035L90.0997 67.8869H15.4149Z" fill="#5341DF"/>
<path opacity="0.6" d="M81.7816 0C65.8914 0 51.9037 9.53907 46.1469 24.3104C45.9393 24.8426 45.9522 25.4352 46.1827 25.9578C46.4132 26.4805 46.8425 26.8904 47.376 27.0974C47.9096 27.3044 48.5038 27.2915 49.0278 27.0616C49.5519 26.8317 49.9629 26.4036 50.1705 25.8715C55.2772 12.7695 67.6854 4.30547 81.7816 4.30547C100.475 4.30547 115.688 19.4739 115.688 38.1163C115.688 43.6247 114.338 49.0497 111.757 53.9197C109.176 58.7897 105.442 62.9574 100.879 66.0606C100.642 66.2187 100.439 66.4221 100.281 66.6589C100.123 66.8958 100.014 67.1614 99.9603 67.4406C99.9063 67.7197 99.9082 68.0067 99.966 68.285C100.024 68.5634 100.136 68.8276 100.297 69.0623C100.458 69.297 100.664 69.4976 100.903 69.6525C101.142 69.8074 101.409 69.9135 101.69 69.9648C101.97 70.016 102.258 70.0113 102.536 69.951C102.815 69.8906 103.079 69.7759 103.312 69.6133C108.455 66.1156 112.664 61.4179 115.572 55.9287C118.481 50.4394 120.001 44.3248 120 38.1163C120 17.0994 102.855 0 81.7816 0Z" fill="#5341DF"/>
<path opacity="0.6" d="M100.815 59.6851C100.914 59.785 101.031 59.8642 101.16 59.9182C101.29 59.9723 101.428 60 101.568 60C101.707 60.0005 101.844 59.9734 101.972 59.9202C102.101 59.8671 102.217 59.7889 102.315 59.6902C105.077 56.9407 107.267 53.6647 108.758 50.0534C110.249 46.4422 111.011 42.5679 111 38.6567C111 22.304 97.792 9.00014 81.5575 9.00014C77.0446 8.9863 72.5897 10.0243 68.5412 12.0329C64.4927 14.0415 60.9603 16.9663 58.2203 20.5786C58.0486 20.8033 57.9725 21.0876 58.0089 21.3688C58.0452 21.65 58.191 21.9051 58.414 22.0781C58.6371 22.251 58.9193 22.3276 59.1984 22.291C59.4776 22.2544 59.7309 22.1076 59.9026 21.8829C62.4444 18.5288 65.7223 15.8128 69.4798 13.9475C73.2373 12.0822 77.3723 11.1183 81.5613 11.1313C96.6255 11.1313 108.879 23.4764 108.879 38.6503C108.89 42.2793 108.183 45.8741 106.799 49.225C105.416 52.5758 103.384 55.6157 100.822 58.1671C100.722 58.2659 100.643 58.3838 100.588 58.5138C100.534 58.6438 100.505 58.7834 100.505 58.9245C100.504 59.0656 100.531 59.2055 100.584 59.3361C100.637 59.4666 100.716 59.5853 100.815 59.6851Z" fill="#5341DF"/>
<path opacity="0.6" d="M93.549 26.1263L94.8635 23.0038C95.1392 22.3495 95.1424 21.6129 94.8724 20.9563C94.6024 20.2996 94.0813 19.7765 93.4237 19.5022C92.7661 19.2278 92.026 19.2247 91.3661 19.4934C90.7062 19.762 90.1806 20.2806 89.9049 20.9349L88.6417 23.9372L85.5861 22.6585L86.8505 19.6563C87.108 19.0052 87.099 18.2796 86.8255 17.6351C86.5519 16.9905 86.0356 16.4782 85.3871 16.2078C84.7385 15.9375 84.0094 15.9306 83.3558 16.1887C82.7023 16.4468 82.1763 16.9494 81.8906 17.5887L80.6275 20.591L78.8581 19.8532C78.5327 19.7174 78.1836 19.6467 77.8307 19.6452C77.4778 19.6437 77.1281 19.7114 76.8016 19.8444C76.475 19.9773 76.1779 20.173 75.9273 20.4203C75.6768 20.6675 75.4776 20.9614 75.3412 21.2853L73 26.8564L76.8446 31.5656L79.2616 25.8271L89.0452 29.9047L90.3148 30.434C91.2049 30.8393 91.9017 31.5731 92.2581 32.4802C92.6145 33.3874 92.6025 34.397 92.2246 35.2955C91.8467 36.194 91.1325 36.9111 90.233 37.2953C89.3335 37.6794 88.3192 37.7005 87.4043 37.3541L78.5639 33.6678L85.9305 42.6899C86.5473 43.0991 87.0715 43.6246 87.3594 44.3228C87.3799 44.3726 87.3709 44.4263 87.3889 44.4762L91.9017 50C92.0302 49.7519 92.1934 49.5192 92.3039 49.2571C92.7712 48.1557 93.0143 46.973 93.0191 45.7775C93.024 44.582 92.7905 43.3974 92.3321 42.2923C92.3219 42.268 92.3064 42.2475 92.2962 42.2245C94.4613 41.341 96.3219 39.7171 97.2946 37.4065C99.0691 33.1934 97.3769 28.4138 93.549 26.1263Z" fill="#5341DF"/>
</svg>
