<svg width="100" height="100" viewBox="0 0 100 100" fill="none" xmlns="http://www.w3.org/2000/svg">
<g opacity="0.6">
<path d="M61.4188 73.4375C61.3151 73.0504 61.1361 72.6876 60.8921 72.3697C60.6481 72.0518 60.3439 71.7851 59.9968 71.5849C59.6497 71.3846 59.2666 71.2548 58.8693 71.2027C58.4719 71.1505 58.0683 71.1772 57.6813 71.2812L54.6688 72.0875C54.2811 72.1905 53.9176 72.369 53.5991 72.6127C53.2805 72.8564 53.0131 73.1605 52.8123 73.5077C52.6114 73.8548 52.481 74.2382 52.4285 74.6358C52.376 75.0335 52.4024 75.4376 52.5063 75.825L53.925 81.1062C54.3625 82.7312 56.0313 83.7 57.6625 83.2625L60.6813 82.45C61.4616 82.2405 62.1269 81.7299 62.5312 81.0304C62.9354 80.3308 63.0456 79.4994 62.8375 78.7187L61.4188 73.4375Z" fill="#5341DF"/>
<path d="M83.8437 46.8938C84.5102 42.1706 84.2126 37.3613 82.9687 32.7563C80.9256 25.1026 76.3773 18.3539 70.0499 13.5876C63.7597 8.83767 56.0789 6.29404 48.197 6.35053C40.315 6.40702 32.6715 9.06049 26.4499 13.9001C22.8073 16.7251 19.7467 20.2293 17.4374 24.2188C13.0623 31.7307 11.5944 40.5864 13.3119 49.1081C15.0294 57.6298 19.8129 65.2256 26.7562 70.4563C33.0469 75.2052 40.7275 77.7482 48.6092 77.6917C56.4909 77.6353 64.1342 74.9824 70.3562 70.1438C74.0025 67.316 77.0654 63.8074 79.3749 59.8126C80.7812 57.3938 81.8875 54.8438 82.6874 52.2001C82.9112 51.788 83.0394 51.3309 83.0624 50.8626C83.3999 49.5501 83.6625 48.2251 83.85 46.8876L83.8437 46.8938ZM76.9375 34.3751C77.85 37.7876 78.1375 41.2626 77.8187 44.6813C77.4445 44.4869 77.0607 44.3117 76.6687 44.1563C74.6788 43.4095 72.5513 43.1004 70.4312 43.2501C69.3687 43.3126 68.375 43.4563 67.4937 43.6376C67.1187 41.5001 66.65 39.3813 66.0875 37.2813C63.725 28.4626 59.8624 20.5563 55.2124 15.0188C54.6355 14.328 54.0308 13.6608 53.3999 13.0188C58.9552 13.9539 64.1256 16.463 68.2977 20.2484C72.4697 24.0338 75.4682 28.9366 76.9375 34.3751ZM38.1437 49.6751C37.6312 48.1813 37.1624 46.6751 36.7562 45.1438C34.6249 37.1813 34.0562 29.3688 35.1562 23.1313C36.0999 17.8001 38.1562 14.3376 40.7937 13.6313C43.4374 12.9188 46.9499 14.8938 50.4312 19.0438C54.5062 23.8876 57.9187 30.9438 60.0562 38.9001C60.4624 40.4251 60.8187 41.9688 61.1187 43.5251C57.7937 42.9626 53.2062 42.6626 48.7562 43.9501C44.2562 45.2501 40.5874 47.6876 38.1437 49.6751ZM22.8437 27.3626C24.599 24.3277 26.8804 21.6294 29.5812 19.3938C29.3562 20.2688 29.1624 21.1563 29.0062 22.0438C27.7437 29.1626 28.3562 37.9376 30.7187 46.7626C31.2812 48.8813 31.9499 50.9751 32.7124 53.0376C31.9339 53.3679 31.1744 53.7414 30.4374 54.1563C28.0929 55.4283 26.0853 57.2409 24.5812 59.4438C22.4124 56.5063 20.8124 53.1938 19.8687 49.6688C18.8595 45.9383 18.6027 42.0443 19.1135 38.2135C19.6243 34.3828 20.8923 30.6921 22.8437 27.3563V27.3626ZM56.0124 70.4126C51.3637 71.6699 46.4776 71.7691 41.7817 70.7013C37.0858 69.6336 32.723 67.4314 29.0749 64.2876C30.6499 60.2876 35.4062 58.5813 37.1562 58.0813C37.4572 58.0491 37.752 57.9733 38.0312 57.8563C38.6199 57.6967 39.147 57.3635 39.5437 56.9001C39.5874 56.8501 44.0625 51.8063 50.4937 49.9563C56.7187 48.1563 63.8375 50.5813 63.9 50.6063C64.6498 50.8708 65.4723 50.8396 66.2 50.5188C67.6641 49.9398 69.2099 49.594 70.7812 49.4938C73.1999 49.3563 75.0562 49.9501 76.4062 51.3001C75.7812 53.1501 74.9687 54.9563 73.9624 56.6813C72.0233 60.0404 69.4392 62.9828 66.3586 65.3394C63.278 67.6959 59.7619 69.4201 56.0124 70.4126Z" fill="#5341DF"/>
<path d="M54.1438 93.5315C51.7998 93.5295 49.5218 92.7551 47.6622 91.3282C45.8025 89.9013 44.4649 87.9013 43.8563 85.6377V85.6252L41.0563 74.9377C40.8458 74.1355 40.9626 73.2824 41.381 72.5663C41.7994 71.8501 42.4852 71.3295 43.2875 71.119C44.0898 70.9085 44.9428 71.0253 45.659 71.4437C46.3752 71.8622 46.8958 72.548 47.1063 73.3502L49.8938 84.0377C50.525 86.369 52.9375 87.7627 55.275 87.1377L64.9938 84.5315C65.5515 84.3839 66.0745 84.1274 66.5326 83.7766C66.9906 83.4258 67.3747 82.9877 67.6625 82.4877C67.9528 81.9881 68.141 81.4358 68.2161 80.8629C68.2912 80.29 68.2518 79.7078 68.1 79.1502V79.1315L65.3 68.4377C65.1962 68.0405 65.1716 67.6267 65.2277 67.2199C65.2838 66.8132 65.4195 66.4215 65.627 66.0672C65.8344 65.7129 66.1097 65.4029 66.437 65.1549C66.7642 64.907 67.1371 64.7259 67.5344 64.6221C67.9316 64.5183 68.3455 64.4937 68.7522 64.5498C69.1589 64.6059 69.5506 64.7416 69.905 64.9491C70.2593 65.1565 70.5693 65.4318 70.8172 65.7591C71.0651 66.0863 71.2462 66.4592 71.35 66.8565L74.1375 77.544C74.875 80.2877 74.4938 83.1502 73.075 85.6065C72.3798 86.8201 71.4506 87.8837 70.3412 88.7356C69.2319 89.5874 67.9645 90.2106 66.6125 90.569L56.8938 93.1752C55.9969 93.4157 55.0723 93.5375 54.1438 93.5377V93.5315Z" fill="#5341DF"/>
</g>
</svg>
